<?xml version="1.0" encoding="UTF-8"?>
<!DOCTYPE svg PUBLIC "-//W3C//DTD SVG 1.1//EN" "http://www.w3.org/Graphics/SVG/1.1/DTD/svg11.dtd">
<svg xmlns="http://www.w3.org/2000/svg" version="1.1" width="170px" height="105px" style="shape-rendering:geometricPrecision; text-rendering:geometricPrecision; image-rendering:optimizeQuality; fill-rule:evenodd; clip-rule:evenodd" xmlns:xlink="http://www.w3.org/1999/xlink">
<g><path style="opacity:0.498" fill="#221e21" d="M 157.5,33.5 C 157.5,33.8333 157.5,34.1667 157.5,34.5C 155.517,34.8432 154.183,34.1765 153.5,32.5C 152.934,30.9217 151.934,29.5884 150.5,28.5C 148.801,29.8146 147.135,29.8146 145.5,28.5C 144.833,27.8333 144.167,27.1667 143.5,26.5C 142.155,24.3032 140.989,21.9698 140,19.5C 139.329,18.7476 138.496,18.4142 137.5,18.5C 135.833,17.8333 134.167,17.1667 132.5,16.5C 128.334,15.9439 124.668,16.9439 121.5,19.5C 118.664,18.0022 115.664,17.6689 112.5,18.5C 111.482,17.8075 110.482,17.1408 109.5,16.5C 109.369,15.7611 109.536,15.0944 110,14.5C 110.893,15.7112 111.726,15.7112 112.5,14.5C 111.426,12.4661 110.093,12.1328 108.5,13.5C 107.527,11.8608 106.194,10.5274 104.5,9.5C 104.027,8.09368 103.027,7.42702 101.5,7.5C 97.9674,6.28542 94.3008,6.28542 90.5,7.5C 89.126,5.62174 87.126,4.62174 84.5,4.5C 81.874,4.62174 79.874,5.62174 78.5,7.5C 73.8796,5.86902 69.5463,6.20235 65.5,8.5C 63.4959,9.67284 61.9959,11.3395 61,13.5C 59.6439,12.6198 58.1439,12.2865 56.5,12.5C 56.3537,14.9424 57.187,15.6091 59,14.5C 59.2514,16.6032 58.2514,17.9365 56,18.5C 54.1739,17.3267 52.3405,17.3267 50.5,18.5C 49.0413,18.4326 47.7079,18.7659 46.5,19.5C 45.9423,18.2101 44.9423,17.3768 43.5,17C 41.1902,16.5034 38.8568,16.3367 36.5,16.5C 34.3936,17.7829 32.0602,18.6162 29.5,19C 28.3442,21.6396 27.0109,24.1396 25.5,26.5C 24.5326,27.8062 23.1993,28.4729 21.5,28.5C 22.9061,25.5865 24.9061,23.0865 27.5,21C 27.0338,19.7012 27.0338,18.2012 27.5,16.5C 31.3736,16.5777 35.0402,15.9111 38.5,14.5C 41.9952,14.9116 45.3285,15.9116 48.5,17.5C 50.323,16.2528 52.323,15.5861 54.5,15.5C 54.2865,13.8561 54.6198,12.3561 55.5,11C 57.5767,10.8078 59.5767,10.3078 61.5,9.5C 65.0737,4.62708 69.7404,3.29375 75.5,5.5C 81.5,1.5 87.5,1.5 93.5,5.5C 99.2596,3.29375 103.926,4.62708 107.5,9.5C 109.423,10.3078 111.423,10.8078 113.5,11C 114.38,12.3561 114.714,13.8561 114.5,15.5C 116.677,15.5861 118.677,16.2528 120.5,17.5C 123.671,15.9116 127.005,14.9116 130.5,14.5C 133.96,15.9111 137.626,16.5777 141.5,16.5C 141.769,21.0839 143.936,25.0839 148,28.5C 150.498,27.4018 152.998,27.5684 155.5,29C 156.711,30.1131 156.711,31.2798 155.5,32.5C 155.957,33.2975 156.624,33.6309 157.5,33.5 Z"/></g>
<g><path style="opacity:1" fill="#b3a12b" d="M 90.5,7.5 C 89.2264,8.18944 89.2264,9.02278 90.5,10C 89.4971,11.5458 88.4971,11.7125 87.5,10.5C 87.2993,6.65003 85.4659,5.65003 82,7.5C 81.5172,8.44802 81.3505,9.44802 81.5,10.5C 81.44,11.0431 81.1067,11.3764 80.5,11.5C 79.8281,10.0508 79.1614,8.7175 78.5,7.5C 79.874,5.62174 81.874,4.62174 84.5,4.5C 87.126,4.62174 89.126,5.62174 90.5,7.5 Z"/></g>
<g><path style="opacity:1" fill="#d8c12c" d="M 76.5,10.5 C 73.8736,11.4215 71.2069,12.4215 68.5,13.5C 67.7025,13.0431 67.3691,12.3764 67.5,11.5C 68.265,10.3398 69.265,9.33977 70.5,8.5C 72.6568,9.05045 74.6568,9.71712 76.5,10.5 Z"/></g>
<g><path style="opacity:1" fill="#7b6c2e" d="M 78.5,7.5 C 79.1614,8.7175 79.8281,10.0508 80.5,11.5C 81.1067,11.3764 81.44,11.0431 81.5,10.5C 83.5,9.16667 85.5,9.16667 87.5,10.5C 88.4971,11.7125 89.4971,11.5458 90.5,10C 89.2264,9.02278 89.2264,8.18944 90.5,7.5C 94.3008,6.28542 97.9674,6.28542 101.5,7.5C 99.3074,8.89526 96.9741,9.89526 94.5,10.5C 92.9519,10.8212 92.2852,11.8212 92.5,13.5C 87.1667,13.5 81.8333,13.5 76.5,13.5C 76.5,12.5 76.5,11.5 76.5,10.5C 74.6568,9.71712 72.6568,9.05045 70.5,8.5C 69.265,9.33977 68.265,10.3398 67.5,11.5C 67.5,11.1667 67.5,10.8333 67.5,10.5C 67.5,9.16667 66.8333,8.5 65.5,8.5C 69.5463,6.20235 73.8796,5.86902 78.5,7.5 Z"/></g>
<g><path style="opacity:1" fill="#1b1821" d="M 87.5,10.5 C 85.5,9.16667 83.5,9.16667 81.5,10.5C 81.3505,9.44802 81.5172,8.44802 82,7.5C 85.4659,5.65003 87.2993,6.65003 87.5,10.5 Z"/></g>
<g><path style="opacity:1" fill="#d4be58" d="M 101.5,7.5 C 103.027,7.42702 104.027,8.09368 104.5,9.5C 103.508,9.32842 102.842,9.66175 102.5,10.5C 101.596,11.209 101.263,12.209 101.5,13.5C 98.562,13.7267 96.2287,12.7267 94.5,10.5C 96.9741,9.89526 99.3074,8.89526 101.5,7.5 Z"/></g>
<g><path style="opacity:1" fill="#3b3122" d="M 67.5,10.5 C 67.5,10.8333 67.5,11.1667 67.5,11.5C 67.3691,12.3764 67.7025,13.0431 68.5,13.5C 71.2069,12.4215 73.8736,11.4215 76.5,10.5C 76.5,11.5 76.5,12.5 76.5,13.5C 75.209,13.2627 74.209,13.596 73.5,14.5C 71.1055,15.0147 68.7722,15.6814 66.5,16.5C 62.3615,13.6103 62.6948,11.6103 67.5,10.5 Z"/></g>
<g><path style="opacity:1" fill="#3a332a" d="M 94.5,10.5 C 96.2287,12.7267 98.562,13.7267 101.5,13.5C 101.263,12.209 101.596,11.209 102.5,10.5C 103.398,11.1577 104.398,11.8243 105.5,12.5C 104.479,13.9014 103.479,15.2347 102.5,16.5C 99.0585,15.807 95.7252,14.807 92.5,13.5C 92.2852,11.8212 92.9519,10.8212 94.5,10.5 Z"/></g>
<g><path style="opacity:1" fill="#d3c01e" d="M 109.5,16.5 C 109.167,16.5 108.833,16.5 108.5,16.5C 107.167,15.5 107.167,14.5 108.5,13.5C 110.093,12.1328 111.426,12.4661 112.5,14.5C 111.726,15.7112 110.893,15.7112 110,14.5C 109.536,15.0944 109.369,15.7611 109.5,16.5 Z"/></g>
<g><path style="opacity:1" fill="#98882a" d="M 104.5,9.5 C 106.194,10.5274 107.527,11.8608 108.5,13.5C 107.167,14.5 107.167,15.5 108.5,16.5C 106.973,16.427 105.973,17.0937 105.5,18.5C 104.29,18.0679 103.29,17.4013 102.5,16.5C 103.479,15.2347 104.479,13.9014 105.5,12.5C 104.398,11.8243 103.398,11.1577 102.5,10.5C 102.842,9.66175 103.508,9.32842 104.5,9.5 Z"/></g>
<g><path style="opacity:1" fill="#ceb746" d="M 36.5,16.5 C 38.8568,16.3367 41.1902,16.5034 43.5,17C 44.9423,17.3768 45.9423,18.2101 46.5,19.5C 46.5,20.8333 47.1667,21.5 48.5,21.5C 48.9528,22.4584 49.6195,23.2917 50.5,24C 48.0687,24.2521 45.7354,23.7521 43.5,22.5C 42.0783,23.7768 41.0783,23.4435 40.5,21.5C 41.0283,20.2794 41.695,19.1127 42.5,18C 40.2922,17.8091 38.2922,17.3091 36.5,16.5 Z"/></g>
<g><path style="opacity:1" fill="#e4dd69" d="M 73.5,14.5 C 74.209,13.596 75.209,13.2627 76.5,13.5C 81.8333,13.5 87.1667,13.5 92.5,13.5C 95.7252,14.807 99.0585,15.807 102.5,16.5C 103.29,17.4013 104.29,18.0679 105.5,18.5C 106.167,18.8333 106.833,19.1667 107.5,19.5C 108.965,20.7368 110.632,21.7368 112.5,22.5C 113.833,24.1667 115.167,25.8333 116.5,27.5C 115.833,27.5 115.5,27.8333 115.5,28.5C 114.078,27.075 112.411,26.075 110.5,25.5C 109.008,22.6769 106.674,21.0102 103.5,20.5C 103.158,19.6618 102.492,19.3284 101.5,19.5C 100.4,18.4415 99.0664,17.6082 97.5,17C 91.2218,15.8119 84.8885,15.3119 78.5,15.5C 77.0813,14.5489 75.4147,14.2155 73.5,14.5 Z"/></g>
<g><path style="opacity:1" fill="#312c21" d="M 108.5,16.5 C 108.737,17.791 108.404,18.791 107.5,19.5C 106.833,19.1667 106.167,18.8333 105.5,18.5C 105.973,17.0937 106.973,16.427 108.5,16.5 Z"/></g>
<g><path style="opacity:1" fill="#a4913a" d="M 108.5,16.5 C 108.833,16.5 109.167,16.5 109.5,16.5C 110.482,17.1408 111.482,17.8075 112.5,18.5C 115.664,17.6689 118.664,18.0022 121.5,19.5C 121.672,20.4916 121.338,21.1583 120.5,21.5C 119.399,20.4017 118.066,20.235 116.5,21C 117.167,21.3333 117.833,21.6667 118.5,22C 116.527,22.4955 114.527,22.6621 112.5,22.5C 110.632,21.7368 108.965,20.7368 107.5,19.5C 108.404,18.791 108.737,17.791 108.5,16.5 Z"/></g>
<g><path style="opacity:1" fill="#9f9126" d="M 36.5,16.5 C 38.2922,17.3091 40.2922,17.8091 42.5,18C 41.695,19.1127 41.0283,20.2794 40.5,21.5C 38.8583,19.9192 36.8583,19.2525 34.5,19.5C 34.4802,21.143 35.1468,22.4763 36.5,23.5C 35,24.5 33.5,25.5 32,26.5C 30.3594,24.9554 29.1928,25.2887 28.5,27.5C 29.9448,29.0627 31.6115,30.396 33.5,31.5C 33.1373,32.1835 32.8039,32.8501 32.5,33.5C 31.5,33.5 30.5,33.5 29.5,33.5C 27.5168,33.8432 26.1834,33.1765 25.5,31.5C 25.5,29.8333 25.5,28.1667 25.5,26.5C 27.0109,24.1396 28.3442,21.6396 29.5,19C 32.0602,18.6162 34.3936,17.7829 36.5,16.5 Z"/></g>
<g><path style="opacity:1" fill="#ab9721" d="M 65.5,8.5 C 66.8333,8.5 67.5,9.16667 67.5,10.5C 62.6948,11.6103 62.3615,13.6103 66.5,16.5C 65.7095,17.4013 64.7095,18.0679 63.5,18.5C 63.189,17.5222 62.5223,16.8555 61.5,16.5C 58.2756,20.5652 54.6089,21.2319 50.5,18.5C 52.3405,17.3267 54.1739,17.3267 56,18.5C 58.2514,17.9365 59.2514,16.6032 59,14.5C 57.187,15.6091 56.3537,14.9424 56.5,12.5C 58.1439,12.2865 59.6439,12.6198 61,13.5C 61.9959,11.3395 63.4959,9.67284 65.5,8.5 Z"/></g>
<g><path style="opacity:1" fill="#e8db27" d="M 73.5,14.5 C 75.4147,14.2155 77.0813,14.5489 78.5,15.5C 68.6258,16.6053 60.6258,21.1053 54.5,29C 48.8431,29.4994 43.1764,29.6661 37.5,29.5C 36.8333,32.8333 36.1667,36.1667 35.5,39.5C 34.8333,39.5 34.5,39.1667 34.5,38.5C 35.4227,34.9359 35.756,31.2693 35.5,27.5C 41.1764,27.6661 46.8431,27.4994 52.5,27C 53.7051,25.6244 55.0384,24.4577 56.5,23.5C 58.5549,21.4453 60.8883,19.7787 63.5,18.5C 64.7095,18.0679 65.7095,17.4013 66.5,16.5C 68.7722,15.6814 71.1055,15.0147 73.5,14.5 Z"/></g>
<g><path style="opacity:1" fill="#4c2b23" d="M 78.5,15.5 C 84.8885,15.3119 91.2218,15.8119 97.5,17C 99.0664,17.6082 100.4,18.4415 101.5,19.5C 99.7839,19.3713 98.1172,19.038 96.5,18.5C 94.9582,17.6993 93.2915,17.366 91.5,17.5C 85.6899,16.2891 80.0233,16.2891 74.5,17.5C 69.3926,18.5512 65.0592,20.8846 61.5,24.5C 59.8333,25.5 58.5,26.8333 57.5,28.5C 56.7109,28.7828 56.0442,29.2828 55.5,30C 49.8431,30.4994 44.1764,30.6661 38.5,30.5C 38.5,33.1667 38.5,35.8333 38.5,38.5C 38.5,39.1667 38.5,39.8333 38.5,40.5C 38.5,41.1667 38.5,41.8333 38.5,42.5C 36.9731,42.573 35.9731,41.9063 35.5,40.5C 37.4136,37.3157 38.0803,33.649 37.5,29.5C 43.1764,29.6661 48.8431,29.4994 54.5,29C 60.6258,21.1053 68.6258,16.6053 78.5,15.5 Z"/></g>
<g><path style="opacity:1" fill="#f16252" d="M 74.5,17.5 C 80.0233,16.2891 85.6899,16.2891 91.5,17.5C 90.5876,18.7382 90.4209,20.0715 91,21.5C 96.0861,28.6979 102.586,30.3645 110.5,26.5C 111.167,26.5 111.5,26.8333 111.5,27.5C 103.23,31.3503 96.2296,29.8503 90.5,23C 88.3921,22.6401 86.3921,21.9734 84.5,21C 83.6634,19.9887 83.33,18.8221 83.5,17.5C 80.5,17.5 77.5,17.5 74.5,17.5 Z"/></g>
<g><path style="opacity:1" fill="#8a7c2b" d="M 132.5,16.5 C 134.167,17.1667 135.833,17.8333 137.5,18.5C 138.626,19.8583 138.626,21.1916 137.5,22.5C 136.749,21.624 136.249,20.624 136,19.5C 135.768,20.7375 135.268,21.7375 134.5,22.5C 134.5,21.5 134.5,20.5 134.5,19.5C 131.215,19.2693 128.715,20.6026 127,23.5C 126.617,22.944 126.117,22.6107 125.5,22.5C 127.248,21.2106 127.581,19.7106 126.5,18C 128.708,17.8091 130.708,17.3091 132.5,16.5 Z"/></g>
<g><path style="opacity:1" fill="#f9826b" d="M 91.5,17.5 C 93.2915,17.366 94.9582,17.6993 96.5,18.5C 96.2471,20.8273 96.9137,22.8273 98.5,24.5C 101.473,25.5089 104.473,25.5089 107.5,24.5C 108.391,25.1098 109.391,25.4431 110.5,25.5C 110.5,25.8333 110.5,26.1667 110.5,26.5C 102.586,30.3645 96.0861,28.6979 91,21.5C 90.4209,20.0715 90.5876,18.7382 91.5,17.5 Z"/></g>
<g><path style="opacity:1" fill="#897031" d="M 63.5,18.5 C 60.8883,19.7787 58.5549,21.4453 56.5,23.5C 53.8785,22.9669 51.3785,21.9669 49,20.5C 48.6012,20.7284 48.4346,21.0618 48.5,21.5C 47.1667,21.5 46.5,20.8333 46.5,19.5C 47.7079,18.7659 49.0413,18.4326 50.5,18.5C 54.6089,21.2319 58.2756,20.5652 61.5,16.5C 62.5223,16.8555 63.189,17.5222 63.5,18.5 Z"/></g>
<g><path style="opacity:1" fill="#544640" d="M 103.5,20.5 C 106.674,21.0102 109.008,22.6769 110.5,25.5C 109.391,25.4431 108.391,25.1098 107.5,24.5C 106.167,23.1667 104.833,21.8333 103.5,20.5 Z"/></g>
<g><path style="opacity:1" fill="#d9b61f" d="M 132.5,16.5 C 130.708,17.3091 128.708,17.8091 126.5,18C 127.581,19.7106 127.248,21.2106 125.5,22.5C 123.293,23.7393 120.959,24.2393 118.5,24C 119.381,23.2917 120.047,22.4584 120.5,21.5C 121.338,21.1583 121.672,20.4916 121.5,19.5C 124.668,16.9439 128.334,15.9439 132.5,16.5 Z"/></g>
<g><path style="opacity:1" fill="#c1b22e" d="M 137.5,18.5 C 138.496,18.4142 139.329,18.7476 140,19.5C 140.989,21.9698 142.155,24.3032 143.5,26.5C 143.5,28.1667 143.5,29.8333 143.5,31.5C 143.672,32.4916 143.338,33.1583 142.5,33.5C 140.372,32.7195 140.205,31.7195 142,30.5C 143.313,26.7949 142.146,24.4615 138.5,23.5C 137.842,24.3984 137.176,25.3984 136.5,26.5C 135.281,25.3539 133.948,24.3539 132.5,23.5C 132.957,22.7025 133.624,22.3691 134.5,22.5C 135.268,21.7375 135.768,20.7375 136,19.5C 136.249,20.624 136.749,21.624 137.5,22.5C 138.626,21.1916 138.626,19.8583 137.5,18.5 Z"/></g>
<g><path style="opacity:1" fill="#f1a18c" d="M 96.5,18.5 C 98.1172,19.038 99.7839,19.3713 101.5,19.5C 102.492,19.3284 103.158,19.6618 103.5,20.5C 104.833,21.8333 106.167,23.1667 107.5,24.5C 104.473,25.5089 101.473,25.5089 98.5,24.5C 96.9137,22.8273 96.2471,20.8273 96.5,18.5 Z"/></g>
<g><path style="opacity:1" fill="#2d2623" d="M 134.5,22.5 C 133.624,22.3691 132.957,22.7025 132.5,23.5C 133.948,24.3539 135.281,25.3539 136.5,26.5C 137.176,25.3984 137.842,24.3984 138.5,23.5C 141.18,26.5633 140.514,28.8966 136.5,30.5C 135.824,29.3984 135.158,28.3984 134.5,27.5C 128.5,27.5 122.5,27.5 116.5,27.5C 115.167,25.8333 113.833,24.1667 112.5,22.5C 114.527,22.6621 116.527,22.4955 118.5,22C 117.833,21.6667 117.167,21.3333 116.5,21C 118.066,20.235 119.399,20.4017 120.5,21.5C 120.047,22.4584 119.381,23.2917 118.5,24C 120.959,24.2393 123.293,23.7393 125.5,22.5C 126.117,22.6107 126.617,22.944 127,23.5C 128.715,20.6026 131.215,19.2693 134.5,19.5C 134.5,20.5 134.5,21.5 134.5,22.5 Z"/></g>
<g><path style="opacity:1" fill="#2b2523" d="M 40.5,21.5 C 41.0783,23.4435 42.0783,23.7768 43.5,22.5C 45.7354,23.7521 48.0687,24.2521 50.5,24C 49.6195,23.2917 48.9528,22.4584 48.5,21.5C 48.4346,21.0618 48.6012,20.7284 49,20.5C 51.3785,21.9669 53.8785,22.9669 56.5,23.5C 55.0384,24.4577 53.7051,25.6244 52.5,27C 46.8431,27.4994 41.1764,27.6661 35.5,27.5C 34.5386,29.2646 34.2053,31.2646 34.5,33.5C 33.8333,33.5 33.1667,33.5 32.5,33.5C 32.8039,32.8501 33.1373,32.1835 33.5,31.5C 31.6115,30.396 29.9448,29.0627 28.5,27.5C 29.1928,25.2887 30.3594,24.9554 32,26.5C 33.5,25.5 35,24.5 36.5,23.5C 35.1468,22.4763 34.4802,21.143 34.5,19.5C 36.8583,19.2525 38.8583,19.9192 40.5,21.5 Z"/></g>
<g><path style="opacity:1" fill="#4f4829" d="M 25.5,26.5 C 25.5,28.1667 25.5,29.8333 25.5,31.5C 24.8333,31.8333 24.1667,32.1667 23.5,32.5C 22.7688,32.0582 21.7688,31.8915 20.5,32C 21.3279,31.0853 22.3279,30.4186 23.5,30C 21.5273,29.5045 19.5273,29.3379 17.5,29.5C 18.209,28.596 19.209,28.2627 20.5,28.5C 20.8333,28.5 21.1667,28.5 21.5,28.5C 23.1993,28.4729 24.5326,27.8062 25.5,26.5 Z"/></g>
<g><path style="opacity:1" fill="#f42632" d="M 61.5,24.5 C 62.1667,24.5 62.5,24.8333 62.5,25.5C 58.7225,27.6831 59.2225,29.3498 64,30.5C 69.9414,27.7429 76.1081,26.7429 82.5,27.5C 84.8559,28.6539 85.0226,29.9873 83,31.5C 79.7188,29.1197 76.3855,29.1197 73,31.5C 71.5391,30.1175 70.7058,30.4508 70.5,32.5C 68.4357,32.687 66.4357,33.187 64.5,34C 66.1134,36.2276 66.78,38.7276 66.5,41.5C 70.0399,41.7526 73.3733,42.4192 76.5,43.5C 72.5159,44.7425 68.5159,44.7425 64.5,43.5C 64.5,41.1667 64.5,38.8333 64.5,36.5C 61.9179,36.0254 59.9179,36.6921 58.5,38.5C 58.1667,39.1667 57.8333,39.8333 57.5,40.5C 55.0754,41.9488 52.4088,42.6155 49.5,42.5C 45.8284,41.823 42.1617,41.1563 38.5,40.5C 38.5,39.8333 38.5,39.1667 38.5,38.5C 42.0113,39.5889 45.5113,39.5889 49,38.5C 50.8895,38.7852 52.2229,39.7852 53,41.5C 54.9475,38.495 57.1142,35.6617 59.5,33C 58.6721,32.0853 57.6721,31.4186 56.5,31C 57.2524,30.3292 57.5858,29.4959 57.5,28.5C 58.5,26.8333 59.8333,25.5 61.5,24.5 Z"/></g>
<g><path style="opacity:1" fill="#534b23" d="M 143.5,26.5 C 144.167,27.1667 144.833,27.8333 145.5,28.5C 145.937,30.0744 146.937,31.2411 148.5,32C 147.231,31.8915 146.231,32.0582 145.5,32.5C 144.833,32.1667 144.167,31.8333 143.5,31.5C 143.5,29.8333 143.5,28.1667 143.5,26.5 Z"/></g>
<g><path style="opacity:1" fill="#bdac30" d="M 145.5,28.5 C 147.135,29.8146 148.801,29.8146 150.5,28.5C 151.934,29.5884 152.934,30.9217 153.5,32.5C 152.221,33.968 150.554,34.6347 148.5,34.5C 146.973,34.573 145.973,33.9063 145.5,32.5C 146.231,32.0582 147.231,31.8915 148.5,32C 146.937,31.2411 145.937,30.0744 145.5,28.5 Z"/></g>
<g><path style="opacity:1" fill="#ee1e30" d="M 57.5,28.5 C 57.5858,29.4959 57.2524,30.3292 56.5,31C 57.6721,31.4186 58.6721,32.0853 59.5,33C 57.1142,35.6617 54.9475,38.495 53,41.5C 52.2229,39.7852 50.8895,38.7852 49,38.5C 45.5113,39.5889 42.0113,39.5889 38.5,38.5C 38.5,35.8333 38.5,33.1667 38.5,30.5C 44.1764,30.6661 49.8431,30.4994 55.5,30C 56.0442,29.2828 56.7109,28.7828 57.5,28.5 Z"/></g>
<g><path style="opacity:1" fill="#f31e2f" d="M 84.5,38.5 C 83.5,41.5 81.5,43.5 78.5,44.5C 77.8333,44.1667 77.1667,43.8333 76.5,43.5C 73.3733,42.4192 70.0399,41.7526 66.5,41.5C 66.78,38.7276 66.1134,36.2276 64.5,34C 66.4357,33.187 68.4357,32.687 70.5,32.5C 73.1393,33.1921 75.8059,32.8588 78.5,31.5C 80.2705,32.0354 80.6039,32.8687 79.5,34C 80.9931,35.3681 82.4931,35.5348 84,34.5C 84.49,35.7932 84.6567,37.1266 84.5,38.5 Z"/></g>
<g><path style="opacity:1" fill="#f54841" d="M 74.5,17.5 C 77.5,17.5 80.5,17.5 83.5,17.5C 83.33,18.8221 83.6634,19.9887 84.5,21C 86.3921,21.9734 88.3921,22.6401 90.5,23C 96.2296,29.8503 103.23,31.3503 111.5,27.5C 112.833,28.5 114.167,29.5 115.5,30.5C 115.5,30.8333 115.5,31.1667 115.5,31.5C 114.527,31.9867 113.527,32.4867 112.5,33C 114.608,35.0164 114.942,37.1831 113.5,39.5C 113.672,38.5084 113.338,37.8417 112.5,37.5C 112.103,36.475 111.437,36.3083 110.5,37C 110.833,37.3333 111.167,37.6667 111.5,38C 110.027,38.7096 109.36,39.8762 109.5,41.5C 109.5,42.1667 109.167,42.5 108.5,42.5C 108.5,42.1667 108.5,41.8333 108.5,41.5C 108.5,40.1667 108.5,38.8333 108.5,37.5C 109.774,36.8106 109.774,35.9772 108.5,35C 101.327,34.2075 94.9932,31.5408 89.5,27C 81.9149,24.9186 74.4149,25.0853 67,27.5C 65.3775,26.9011 63.8775,26.2344 62.5,25.5C 62.5,24.8333 62.1667,24.5 61.5,24.5C 65.0592,20.8846 69.3926,18.5512 74.5,17.5 Z"/></g>
<g><path style="opacity:1" fill="#151222" d="M 25.5,31.5 C 26.1834,33.1765 27.5168,33.8432 29.5,33.5C 27.8333,34.1667 26.1667,34.8333 24.5,35.5C 22.7162,35.8925 21.0495,36.5592 19.5,37.5C 18.9569,37.44 18.6236,37.1067 18.5,36.5C 19.2427,35.8182 19.9094,35.1515 20.5,34.5C 22.0269,34.573 23.0269,33.9063 23.5,32.5C 24.1667,32.1667 24.8333,31.8333 25.5,31.5 Z"/></g>
<g><path style="opacity:1" fill="#998a24" d="M 138.5,23.5 C 142.146,24.4615 143.313,26.7949 142,30.5C 140.205,31.7195 140.372,32.7195 142.5,33.5C 140.208,33.7564 138.041,33.4231 136,32.5C 135.235,34.0657 135.402,35.3991 136.5,36.5C 136.44,37.0431 136.107,37.3764 135.5,37.5C 134.513,34.2317 134.18,30.8984 134.5,27.5C 135.158,28.3984 135.824,29.3984 136.5,30.5C 140.514,28.8966 141.18,26.5633 138.5,23.5 Z"/></g>
<g><path style="opacity:1" fill="#cbb92c" d="M 17.5,29.5 C 19.5273,29.3379 21.5273,29.5045 23.5,30C 22.3279,30.4186 21.3279,31.0853 20.5,32C 21.7688,31.8915 22.7688,32.0582 23.5,32.5C 23.0269,33.9063 22.0269,34.573 20.5,34.5C 18.4458,34.6347 16.7791,33.968 15.5,32.5C 15.2852,30.8212 15.9519,29.8212 17.5,29.5 Z"/></g>
<g><path style="opacity:1" fill="#cdb229" d="M 35.5,27.5 C 35.756,31.2693 35.4227,34.9359 34.5,38.5C 33.5084,38.6716 32.8417,38.3382 32.5,37.5C 33.1667,37.5 33.5,37.1667 33.5,36.5C 34.404,35.791 34.7373,34.791 34.5,33.5C 34.2053,31.2646 34.5386,29.2646 35.5,27.5 Z"/></g>
<g><path style="opacity:1" fill="#f52933" d="M 115.5,31.5 C 120.5,31.5 125.5,31.5 130.5,31.5C 130.5,34.1667 130.5,36.8333 130.5,39.5C 129.348,38.375 128.348,38.375 127.5,39.5C 127.167,40.5 126.5,41.1667 125.5,41.5C 124.85,41.1961 124.183,40.8627 123.5,40.5C 121.471,41.8435 119.471,43.1769 117.5,44.5C 114.183,44.781 111.017,44.781 108,44.5C 107.25,45.1258 106.416,45.6258 105.5,46C 97.695,47.4946 90.0283,47.6612 82.5,46.5C 88.8798,46.6072 95.2131,46.1072 101.5,45C 104.256,44.483 106.589,43.3163 108.5,41.5C 108.5,41.8333 108.5,42.1667 108.5,42.5C 110.685,43.0869 112.352,42.0869 113.5,39.5C 114.942,37.1831 114.608,35.0164 112.5,33C 113.527,32.4867 114.527,31.9867 115.5,31.5 Z"/></g>
<g><path style="opacity:1" fill="#99222f" d="M 115.5,31.5 C 115.5,31.1667 115.5,30.8333 115.5,30.5C 120.833,30.5 126.167,30.5 131.5,30.5C 131.183,34.7016 131.517,38.7016 132.5,42.5C 132.44,43.0431 132.107,43.3764 131.5,43.5C 130.571,42.3112 130.238,40.9778 130.5,39.5C 130.5,36.8333 130.5,34.1667 130.5,31.5C 125.5,31.5 120.5,31.5 115.5,31.5 Z"/></g>
<g><path style="opacity:1" fill="#282222" d="M 143.5,31.5 C 144.167,31.8333 144.833,32.1667 145.5,32.5C 145.973,33.9063 146.973,34.573 148.5,34.5C 149.167,35.1667 149.833,35.8333 150.5,36.5C 149.167,36.5 147.833,36.5 146.5,36.5C 145.5,36.5 144.5,36.5 143.5,36.5C 141.167,36.5 138.833,36.5 136.5,36.5C 135.402,35.3991 135.235,34.0657 136,32.5C 138.041,33.4231 140.208,33.7564 142.5,33.5C 143.338,33.1583 143.672,32.4916 143.5,31.5 Z"/></g>
<g><path style="opacity:1" fill="#827628" d="M 15.5,32.5 C 16.7791,33.968 18.4458,34.6347 20.5,34.5C 19.9094,35.1515 19.2427,35.8182 18.5,36.5C 18.6236,37.1067 18.9569,37.44 19.5,37.5C 19.1667,38.5 18.5,39.1667 17.5,39.5C 16.7659,38.2921 16.4326,36.9587 16.5,35.5C 14.7839,35.6287 13.1172,35.962 11.5,36.5C 11.1667,36.5 10.8333,36.5 10.5,36.5C 12.1667,35.1667 13.8333,33.8333 15.5,32.5 Z"/></g>
<g><path style="opacity:1" fill="#605d55" d="M 29.5,33.5 C 30.5,33.5 31.5,33.5 32.5,33.5C 33.1667,33.5 33.8333,33.5 34.5,33.5C 34.7373,34.791 34.404,35.791 33.5,36.5C 32.2921,35.7659 30.9587,35.4326 29.5,35.5C 27.8333,35.5 26.1667,35.5 24.5,35.5C 26.1667,34.8333 27.8333,34.1667 29.5,33.5 Z"/></g>
<g><path style="opacity:1" fill="#887d2f" d="M 153.5,32.5 C 154.183,34.1765 155.517,34.8432 157.5,34.5C 158.751,35.472 158.418,36.1386 156.5,36.5C 154.191,35.76 152.191,35.76 150.5,36.5C 149.833,35.8333 149.167,35.1667 148.5,34.5C 150.554,34.6347 152.221,33.968 153.5,32.5 Z"/></g>
<g><path style="opacity:1" fill="#6d711e" d="M 37.5,29.5 C 38.0803,33.649 37.4136,37.3157 35.5,40.5C 35.5,40.1667 35.5,39.8333 35.5,39.5C 36.1667,36.1667 36.8333,32.8333 37.5,29.5 Z"/></g>
<g><path style="opacity:1" fill="#783d3c" d="M 85.5,34.5 C 85.56,33.9569 85.8933,33.6236 86.5,33.5C 87.4287,34.6888 87.762,36.0222 87.5,37.5C 87.6716,38.4916 87.3382,39.1583 86.5,39.5C 86.7845,37.5853 86.4511,35.9187 85.5,34.5 Z"/></g>
<g><path style="opacity:1" fill="#f42b34" d="M 62.5,25.5 C 63.8775,26.2344 65.3775,26.9011 67,27.5C 74.4149,25.0853 81.9149,24.9186 89.5,27C 94.9932,31.5408 101.327,34.2075 108.5,35C 109.774,35.9772 109.774,36.8106 108.5,37.5C 101.999,37.5637 95.332,36.2303 88.5,33.5C 88.7678,35.099 88.4345,36.4324 87.5,37.5C 87.762,36.0222 87.4287,34.6888 86.5,33.5C 85.8933,33.6236 85.56,33.9569 85.5,34.5C 85.7678,36.099 85.4345,37.4324 84.5,38.5C 84.6567,37.1266 84.49,35.7932 84,34.5C 82.4931,35.5348 80.9931,35.3681 79.5,34C 80.6039,32.8687 80.2705,32.0354 78.5,31.5C 75.8059,32.8588 73.1393,33.1921 70.5,32.5C 70.7058,30.4508 71.5391,30.1175 73,31.5C 76.3855,29.1197 79.7188,29.1197 83,31.5C 85.0226,29.9873 84.8559,28.6539 82.5,27.5C 76.1081,26.7429 69.9414,27.7429 64,30.5C 59.2225,29.3498 58.7225,27.6831 62.5,25.5 Z"/></g>
<g><path style="opacity:1" fill="#faf5ba" d="M 29.5,35.5 C 30.9587,35.4326 32.2921,35.7659 33.5,36.5C 33.5,37.1667 33.1667,37.5 32.5,37.5C 31.5,37.5 30.5,37.5 29.5,37.5C 29.5,36.8333 29.5,36.1667 29.5,35.5 Z"/></g>
<g><path style="opacity:1" fill="#221e22" d="M 17.5,39.5 C 16.8333,39.5 16.5,39.8333 16.5,40.5C 15.8333,39.8333 15.1667,39.1667 14.5,38.5C 13.391,38.4431 12.391,38.1098 11.5,37.5C 11.5,37.1667 11.5,36.8333 11.5,36.5C 13.1172,35.962 14.7839,35.6287 16.5,35.5C 16.4326,36.9587 16.7659,38.2921 17.5,39.5 Z"/></g>
<g><path style="opacity:1" fill="#f3e22a" d="M 116.5,27.5 C 122.5,27.5 128.5,27.5 134.5,27.5C 134.18,30.8984 134.513,34.2317 135.5,37.5C 136.107,37.3764 136.44,37.0431 136.5,36.5C 138.833,36.5 141.167,36.5 143.5,36.5C 141.833,37.1667 140.167,37.8333 138.5,38.5C 136.516,38.3832 134.85,39.0499 133.5,40.5C 132.511,36.8927 132.177,33.226 132.5,29.5C 126.642,29.8222 120.975,29.4889 115.5,28.5C 115.5,27.8333 115.833,27.5 116.5,27.5 Z"/></g>
<g><path style="opacity:1" fill="#e7d84f" d="M 143.5,36.5 C 144.5,36.5 145.5,36.5 146.5,36.5C 150.472,38.4722 153.472,41.4722 155.5,45.5C 156.833,49.5 156.833,53.5 155.5,57.5C 154.662,57.1583 154.328,56.4916 154.5,55.5C 155.303,44.1268 149.97,38.4602 138.5,38.5C 140.167,37.8333 141.833,37.1667 143.5,36.5 Z"/></g>
<g><path style="opacity:1" fill="#3d3627" d="M 160.5,36.5 C 160.5,36.8333 160.5,37.1667 160.5,37.5C 159.295,38.6719 159.295,40.0052 160.5,41.5C 160.043,42.2975 159.376,42.6309 158.5,42.5C 158.836,37.6084 157.503,36.7751 154.5,40C 155.278,42.0991 156.611,43.5991 158.5,44.5C 158.833,44.5 159.167,44.5 159.5,44.5C 159.5,45.8333 158.833,46.5 157.5,46.5C 156.833,46.1667 156.167,45.8333 155.5,45.5C 153.472,41.4722 150.472,38.4722 146.5,36.5C 147.833,36.5 149.167,36.5 150.5,36.5C 152.191,35.76 154.191,35.76 156.5,36.5C 158.418,36.1386 158.751,35.472 157.5,34.5C 157.5,34.1667 157.5,33.8333 157.5,33.5C 158.209,32.596 159.209,32.2627 160.5,32.5C 160.5,33.8333 160.5,35.1667 160.5,36.5 Z"/></g>
<g><path style="opacity:1" fill="#65594b" d="M 23.5,38.5 C 25.2646,37.5386 27.2646,37.2053 29.5,37.5C 30.5,37.5 31.5,37.5 32.5,37.5C 32.8417,38.3382 33.5084,38.6716 34.5,38.5C 34.5,39.1667 34.8333,39.5 35.5,39.5C 35.5,39.8333 35.5,40.1667 35.5,40.5C 32.2365,39.5178 28.9032,38.8511 25.5,38.5C 24.8333,38.5 24.1667,38.5 23.5,38.5 Z"/></g>
<g><path style="opacity:1" fill="#f4e0dd" d="M 58.5,38.5 C 60.4832,38.1568 61.8166,38.8235 62.5,40.5C 62.0269,41.9063 61.0269,42.573 59.5,42.5C 58.5,42.1667 57.8333,41.5 57.5,40.5C 57.8333,39.8333 58.1667,39.1667 58.5,38.5 Z"/></g>
<g><path style="opacity:1" fill="#f42231" d="M 108.5,37.5 C 108.5,38.8333 108.5,40.1667 108.5,41.5C 106.589,43.3163 104.256,44.483 101.5,45C 95.2131,46.1072 88.8798,46.6072 82.5,46.5C 83.925,45.078 84.925,43.4113 85.5,41.5C 86.3382,41.1583 86.6716,40.4916 86.5,39.5C 87.3382,39.1583 87.6716,38.4916 87.5,37.5C 88.4345,36.4324 88.7678,35.099 88.5,33.5C 95.332,36.2303 101.999,37.5637 108.5,37.5 Z"/></g>
<g><path style="opacity:1" fill="#b1a227" d="M 11.5,37.5 C 12.391,38.1098 13.391,38.4431 14.5,38.5C 12.1154,45.4036 11.1154,45.0703 11.5,37.5 Z"/></g>
<g><path style="opacity:1" fill="#eedddd" d="M 112.5,37.5 C 112.262,39.4044 111.262,40.7377 109.5,41.5C 109.36,39.8762 110.027,38.7096 111.5,38C 111.167,37.6667 110.833,37.3333 110.5,37C 111.437,36.3083 112.103,36.475 112.5,37.5 Z"/></g>
<g><path style="opacity:1" fill="#f6564a" d="M 25.5,38.5 C 28.9032,38.8511 32.2365,39.5178 35.5,40.5C 35.9731,41.9063 36.9731,42.573 38.5,42.5C 46.8827,45.8867 55.7161,47.5533 65,47.5C 66.7866,47.7586 68.2866,48.4253 69.5,49.5C 60.7907,53.401 51.624,54.401 42,52.5C 40.6244,52.6842 39.7911,53.3509 39.5,54.5C 38.596,53.791 38.2627,52.791 38.5,51.5C 40.5273,51.6621 42.5273,51.4955 44.5,51C 37.2471,49.5201 30.2471,47.3534 23.5,44.5C 22.7095,43.5987 21.7095,42.9321 20.5,42.5C 21.6718,40.461 23.3384,39.1276 25.5,38.5 Z"/></g>
<g><path style="opacity:1" fill="#493f2a" d="M 110.5,26.5 C 110.5,26.1667 110.5,25.8333 110.5,25.5C 112.411,26.075 114.078,27.075 115.5,28.5C 120.975,29.4889 126.642,29.8222 132.5,29.5C 132.177,33.226 132.511,36.8927 133.5,40.5C 134.85,39.0499 136.516,38.3832 138.5,38.5C 149.97,38.4602 155.303,44.1268 154.5,55.5C 154.167,55.5 153.833,55.5 153.5,55.5C 153.806,52.6146 153.473,49.9479 152.5,47.5C 152.5,46.8333 152.167,46.5 151.5,46.5C 151.167,45.8333 150.833,45.1667 150.5,44.5C 150.167,43.5 149.5,42.8333 148.5,42.5C 147.18,41.0582 145.514,40.3915 143.5,40.5C 141.5,39.1667 139.5,39.1667 137.5,40.5C 135.597,40.7959 133.93,41.4625 132.5,42.5C 131.517,38.7016 131.183,34.7016 131.5,30.5C 126.167,30.5 120.833,30.5 115.5,30.5C 114.167,29.5 112.833,28.5 111.5,27.5C 111.5,26.8333 111.167,26.5 110.5,26.5 Z"/></g>
<g><path style="opacity:1" fill="#ead516" d="M 24.5,35.5 C 26.1667,35.5 27.8333,35.5 29.5,35.5C 29.5,36.1667 29.5,36.8333 29.5,37.5C 27.2646,37.2053 25.2646,37.5386 23.5,38.5C 16.8951,41.7015 13.8951,47.0348 14.5,54.5C 14.6716,55.4916 14.3382,56.1583 13.5,56.5C 11.7196,50.6236 12.7196,45.2903 16.5,40.5C 16.5,39.8333 16.8333,39.5 17.5,39.5C 18.5,39.1667 19.1667,38.5 19.5,37.5C 21.0495,36.5592 22.7162,35.8925 24.5,35.5 Z"/></g>
<g><path style="opacity:1" fill="#f43d3b" d="M 76.5,43.5 C 77.1667,43.8333 77.8333,44.1667 78.5,44.5C 75.9922,46.9236 72.9922,48.5903 69.5,49.5C 68.2866,48.4253 66.7866,47.7586 65,47.5C 55.7161,47.5533 46.8827,45.8867 38.5,42.5C 38.5,41.8333 38.5,41.1667 38.5,40.5C 42.1617,41.1563 45.8284,41.823 49.5,42.5C 52.4088,42.6155 55.0754,41.9488 57.5,40.5C 57.8333,41.5 58.5,42.1667 59.5,42.5C 60.2506,43.5735 61.2506,43.7401 62.5,43C 63.7736,42.0228 63.7736,41.1894 62.5,40.5C 61.8166,38.8235 60.4832,38.1568 58.5,38.5C 59.9179,36.6921 61.9179,36.0254 64.5,36.5C 64.5,38.8333 64.5,41.1667 64.5,43.5C 68.5159,44.7425 72.5159,44.7425 76.5,43.5 Z"/></g>
<g><path style="opacity:1" fill="#9a8c22" d="M 158.5,42.5 C 158.5,43.1667 158.5,43.8333 158.5,44.5C 156.611,43.5991 155.278,42.0991 154.5,40C 157.503,36.7751 158.836,37.6084 158.5,42.5 Z"/></g>
<g><path style="opacity:1" fill="#5a1b17" d="M 62.5,40.5 C 63.7736,41.1894 63.7736,42.0228 62.5,43C 61.2506,43.7401 60.2506,43.5735 59.5,42.5C 61.0269,42.573 62.0269,41.9063 62.5,40.5 Z"/></g>
<g><path style="opacity:1" fill="#69201d" d="M 112.5,37.5 C 113.338,37.8417 113.672,38.5084 113.5,39.5C 112.352,42.0869 110.685,43.0869 108.5,42.5C 109.167,42.5 109.5,42.1667 109.5,41.5C 111.262,40.7377 112.262,39.4044 112.5,37.5 Z"/></g>
<g><path style="opacity:1" fill="#331a17" d="M 128.5,40.5 C 129.525,40.8966 129.692,41.5632 129,42.5C 125.188,45.6404 121.355,48.6404 117.5,51.5C 115.147,52.3403 113.147,53.6736 111.5,55.5C 109.158,55.2252 109.158,54.3919 111.5,53C 117.63,49.3561 123.297,45.1894 128.5,40.5 Z"/></g>
<g><path style="opacity:1" fill="#fdc4b1" d="M 143.5,40.5 C 145.514,40.3915 147.18,41.0582 148.5,42.5C 147.054,43.6129 145.387,43.7796 143.5,43C 142.226,42.0228 142.226,41.1894 143.5,40.5 Z"/></g>
<g><path style="opacity:1" fill="#d8ca2f" d="M 160.5,37.5 C 160.833,38.1667 161.167,38.8333 161.5,39.5C 161.88,41.698 161.213,43.3646 159.5,44.5C 159.167,44.5 158.833,44.5 158.5,44.5C 158.5,43.8333 158.5,43.1667 158.5,42.5C 159.376,42.6309 160.043,42.2975 160.5,41.5C 159.295,40.0052 159.295,38.6719 160.5,37.5 Z"/></g>
<g><path style="opacity:1" fill="#e71b2d" d="M 23.5,44.5 C 30.2471,47.3534 37.2471,49.5201 44.5,51C 42.5273,51.4955 40.5273,51.6621 38.5,51.5C 38.2627,52.791 38.596,53.791 39.5,54.5C 39.9528,55.4584 40.6195,56.2917 41.5,57C 46.8333,57.3333 52.1667,57.6667 57.5,58C 56.5562,60.7191 56.2229,63.5525 56.5,66.5C 55.7777,67.5511 54.7777,68.2178 53.5,68.5C 47.2862,67.3856 42.9529,63.8856 40.5,58C 34.9884,56.176 29.655,53.8426 24.5,51C 21.7615,49.6884 20.4282,47.5217 20.5,44.5C 21.5,44.5 22.5,44.5 23.5,44.5 Z"/></g>
<g><path style="opacity:1" fill="#9f908f" d="M 125.5,41.5 C 122.554,44.3131 119.221,46.6465 115.5,48.5C 115.527,46.8007 116.194,45.4674 117.5,44.5C 119.471,43.1769 121.471,41.8435 123.5,40.5C 124.183,40.8627 124.85,41.1961 125.5,41.5 Z"/></g>
<g><path style="opacity:1" fill="#f38873" d="M 137.5,40.5 C 139.5,39.1667 141.5,39.1667 143.5,40.5C 142.226,41.1894 142.226,42.0228 143.5,43C 145.387,43.7796 147.054,43.6129 148.5,42.5C 149.5,42.8333 150.167,43.5 150.5,44.5C 146.869,45.412 143.203,45.5787 139.5,45C 138.901,43.3775 138.234,41.8775 137.5,40.5 Z"/></g>
<g><path style="opacity:1" fill="#f0e5e5" d="M 85.5,34.5 C 86.4511,35.9187 86.7845,37.5853 86.5,39.5C 86.6716,40.4916 86.3382,41.1583 85.5,41.5C 81.6678,45.1638 77.6678,48.6638 73.5,52C 68.9093,53.8637 64.2426,55.5304 59.5,57C 58.1857,59.6047 58.1857,62.1047 59.5,64.5C 60.9587,64.5674 62.2921,64.2341 63.5,63.5C 64.1667,64.1667 64.8333,64.8333 65.5,65.5C 63.3718,66.9573 61.0384,67.9573 58.5,68.5C 57.8333,67.8333 57.1667,67.1667 56.5,66.5C 56.2229,63.5525 56.5562,60.7191 57.5,58C 52.1667,57.6667 46.8333,57.3333 41.5,57C 40.6195,56.2917 39.9528,55.4584 39.5,54.5C 39.7911,53.3509 40.6244,52.6842 42,52.5C 51.624,54.401 60.7907,53.401 69.5,49.5C 72.9922,48.5903 75.9922,46.9236 78.5,44.5C 81.5,43.5 83.5,41.5 84.5,38.5C 85.4345,37.4324 85.7678,36.099 85.5,34.5 Z"/></g>
<g><path style="opacity:1" fill="#f66050" d="M 127.5,39.5 C 128.348,38.375 129.348,38.375 130.5,39.5C 130.238,40.9778 130.571,42.3112 131.5,43.5C 132.107,43.3764 132.44,43.0431 132.5,42.5C 133.93,41.4625 135.597,40.7959 137.5,40.5C 138.234,41.8775 138.901,43.3775 139.5,45C 143.203,45.5787 146.869,45.412 150.5,44.5C 150.833,45.1667 151.167,45.8333 151.5,46.5C 151.5,47.1667 151.5,47.8333 151.5,48.5C 146.958,49.7369 142.458,49.4036 138,47.5C 131.209,49.1583 124.375,50.4917 117.5,51.5C 121.355,48.6404 125.188,45.6404 129,42.5C 129.692,41.5632 129.525,40.8966 128.5,40.5C 128.5,39.8333 128.167,39.5 127.5,39.5 Z"/></g>
<g><path style="opacity:1" fill="#3a2322" d="M 85.5,41.5 C 84.925,43.4113 83.925,45.078 82.5,46.5C 79.808,48.8623 77.1413,51.1956 74.5,53.5C 69.9472,55.2721 65.2805,56.7721 60.5,58C 59.5769,60.0408 59.2436,62.2075 59.5,64.5C 58.1857,62.1047 58.1857,59.6047 59.5,57C 64.2426,55.5304 68.9093,53.8637 73.5,52C 77.6678,48.6638 81.6678,45.1638 85.5,41.5 Z"/></g>
<g><path style="opacity:1" fill="#ef202f" d="M 151.5,48.5 C 150.106,52.728 147.44,55.8947 143.5,58C 138.118,58.3073 132.785,58.974 127.5,60C 124.186,62.779 120.353,64.6123 116,65.5C 115.333,64.1667 114.667,64.1667 114,65.5C 113.536,64.9056 113.369,64.2389 113.5,63.5C 113.663,61.1432 113.497,58.8098 113,56.5C 112.617,55.944 112.117,55.6107 111.5,55.5C 113.147,53.6736 115.147,52.3403 117.5,51.5C 124.375,50.4917 131.209,49.1583 138,47.5C 142.458,49.4036 146.958,49.7369 151.5,48.5 Z"/></g>
<g><path style="opacity:1" fill="#6f6220" d="M 155.5,45.5 C 156.167,45.8333 156.833,46.1667 157.5,46.5C 157.5,47.1667 157.833,47.5 158.5,47.5C 158.389,48.1174 158.056,48.6174 157.5,49C 161.5,50.6667 161.5,52.3333 157.5,54C 158.381,54.7083 159.047,55.5416 159.5,56.5C 158.041,56.4326 156.708,56.7659 155.5,57.5C 156.833,53.5 156.833,49.5 155.5,45.5 Z"/></g>
<g><path style="opacity:0.5" fill="#17141e" d="M 160.5,36.5 C 161.496,36.4142 162.329,36.7476 163,37.5C 163.21,40.2342 164.044,42.7342 165.5,45C 164.742,46.3639 165.242,47.5305 167,48.5C 167.167,49.6667 167.333,50.8333 167.5,52C 165.085,56.0415 163.585,60.5415 163,65.5C 162.329,66.2524 161.496,66.5858 160.5,66.5C 162.246,64.4658 162.58,62.2991 161.5,60C 163.094,57.1974 164.761,54.3641 166.5,51.5C 164.221,47.6677 162.554,43.6677 161.5,39.5C 161.167,38.8333 160.833,38.1667 160.5,37.5C 160.5,37.1667 160.5,36.8333 160.5,36.5 Z"/></g>
<g><path style="opacity:1" fill="#ab9d29" d="M 10.5,36.5 C 8.58659,39.0618 8.58659,41.3952 10.5,43.5C 8.56503,44.213 8.2317,45.213 9.5,46.5C 7.56958,47.7635 5.90291,49.4301 4.5,51.5C 5.83333,53.1667 7.16667,54.8333 8.5,56.5C 9.18346,56.1373 9.85013,55.8039 10.5,55.5C 10.0314,58.6306 10.0314,62.2973 10.5,66.5C 9.83333,66.5 9.16667,66.5 8.5,66.5C 7.32828,61.1583 5.32828,56.1583 2.5,51.5C 4.9089,47.8821 6.4089,43.8821 7,39.5C 7.75891,37.9371 8.92558,36.9371 10.5,36.5 Z"/></g>
<g><path style="opacity:1" fill="#5c5124" d="M 10.5,36.5 C 10.8333,36.5 11.1667,36.5 11.5,36.5C 11.5,36.8333 11.5,37.1667 11.5,37.5C 11.1154,45.0703 12.1154,45.4036 14.5,38.5C 15.1667,39.1667 15.8333,39.8333 16.5,40.5C 12.7196,45.2903 11.7196,50.6236 13.5,56.5C 14.4706,58.4832 15.4706,60.4832 16.5,62.5C 15.596,63.209 15.2627,64.209 15.5,65.5C 14.5,65.5 13.5,65.5 12.5,65.5C 15.1187,63.4494 14.952,61.4494 12,59.5C 11.5045,61.4727 11.3379,63.4727 11.5,65.5C 11.5,65.8333 11.5,66.1667 11.5,66.5C 11.1667,66.5 10.8333,66.5 10.5,66.5C 10.0314,62.2973 10.0314,58.6306 10.5,55.5C 10.6107,54.8826 10.944,54.3826 11.5,54C 7.5,52.3333 7.5,50.6667 11.5,49C 10.6195,48.2917 9.9528,47.4584 9.5,46.5C 8.2317,45.213 8.56503,44.213 10.5,43.5C 8.58659,41.3952 8.58659,39.0618 10.5,36.5 Z"/></g>
<g><path style="opacity:1" fill="#f65548" d="M 117.5,44.5 C 116.194,45.4674 115.527,46.8007 115.5,48.5C 113.15,49.8611 110.816,51.1944 108.5,52.5C 108.737,51.209 108.404,50.209 107.5,49.5C 106.167,50.8333 104.833,52.1667 103.5,53.5C 98.8091,53.4081 93.8091,53.4081 88.5,53.5C 88.1667,53.5 87.8333,53.5 87.5,53.5C 87.189,52.5222 86.5223,51.8555 85.5,51.5C 84.1667,52.8333 82.8333,52.8333 81.5,51.5C 79.8888,52.3202 79.2222,53.6536 79.5,55.5C 78.2209,54.032 76.5542,53.3653 74.5,53.5C 77.1413,51.1956 79.808,48.8623 82.5,46.5C 90.0283,47.6612 97.695,47.4946 105.5,46C 106.416,45.6258 107.25,45.1258 108,44.5C 111.017,44.781 114.183,44.781 117.5,44.5 Z"/></g>
<g><path style="opacity:1" fill="#f0e3e1" d="M 87.5,53.5 C 86.8902,54.391 86.5569,55.391 86.5,56.5C 86.1667,56.5 85.8333,56.5 85.5,56.5C 84.1667,55.1667 82.8333,55.1667 81.5,56.5C 80.8333,56.1667 80.1667,55.8333 79.5,55.5C 79.2222,53.6536 79.8888,52.3202 81.5,51.5C 82.8333,52.8333 84.1667,52.8333 85.5,51.5C 86.5223,51.8555 87.189,52.5222 87.5,53.5 Z"/></g>
<g><path style="opacity:1" fill="#a69626" d="M 161.5,39.5 C 162.554,43.6677 164.221,47.6677 166.5,51.5C 164.761,54.3641 163.094,57.1974 161.5,60C 162.58,62.2991 162.246,64.4658 160.5,66.5C 159.5,67.1667 158.5,67.8333 157.5,68.5C 157.5,67.8333 157.5,67.1667 157.5,66.5C 159.043,65.2642 160.043,63.5976 160.5,61.5C 160.167,61.1667 159.833,60.8333 159.5,60.5C 158.813,62.2744 157.98,63.9411 157,65.5C 155.6,64.252 154.1,63.252 152.5,62.5C 153.167,61.1667 154.167,60.1667 155.5,59.5C 157.086,58.8519 158.753,58.3519 160.5,58C 159.944,57.6174 159.611,57.1174 159.5,56.5C 161.79,55.5437 163.456,53.877 164.5,51.5C 163.139,49.9716 161.972,48.3049 161,46.5C 160.329,47.2524 159.496,47.5858 158.5,47.5C 157.833,47.5 157.5,47.1667 157.5,46.5C 158.833,46.5 159.5,45.8333 159.5,44.5C 161.213,43.3646 161.88,41.698 161.5,39.5 Z"/></g>
<g><path style="opacity:1" fill="#1f1b20" d="M 9.5,46.5 C 9.9528,47.4584 10.6195,48.2917 11.5,49C 7.5,50.6667 7.5,52.3333 11.5,54C 10.944,54.3826 10.6107,54.8826 10.5,55.5C 9.85013,55.8039 9.18346,56.1373 8.5,56.5C 7.16667,54.8333 5.83333,53.1667 4.5,51.5C 5.90291,49.4301 7.56958,47.7635 9.5,46.5 Z"/></g>
<g><path style="opacity:1" fill="#f12432" d="M 103.5,53.5 C 96.0583,60.6255 87.0583,63.9589 76.5,63.5C 72.8183,63.6565 69.3183,62.9898 66,61.5C 64.699,61.6387 63.8656,62.3054 63.5,63.5C 62.2921,64.2341 60.9587,64.5674 59.5,64.5C 59.2436,62.2075 59.5769,60.0408 60.5,58C 65.2805,56.7721 69.9472,55.2721 74.5,53.5C 76.5542,53.3653 78.2209,54.032 79.5,55.5C 80.1667,55.8333 80.8333,56.1667 81.5,56.5C 82.5279,56.9258 83.8612,56.9258 85.5,56.5C 85.8333,56.5 86.1667,56.5 86.5,56.5C 87.9063,56.0269 88.573,55.0269 88.5,53.5C 93.8091,53.4081 98.8091,53.4081 103.5,53.5 Z"/></g>
<g><path style="opacity:1" fill="#3e3635" d="M 87.5,53.5 C 87.8333,53.5 88.1667,53.5 88.5,53.5C 88.573,55.0269 87.9063,56.0269 86.5,56.5C 86.5569,55.391 86.8902,54.391 87.5,53.5 Z"/></g>
<g><path style="opacity:1" fill="#1e1a21" d="M 159.5,56.5 C 159.047,55.5416 158.381,54.7083 157.5,54C 161.5,52.3333 161.5,50.6667 157.5,49C 158.056,48.6174 158.389,48.1174 158.5,47.5C 159.496,47.5858 160.329,47.2524 161,46.5C 161.972,48.3049 163.139,49.9716 164.5,51.5C 163.456,53.877 161.79,55.5437 159.5,56.5 Z"/></g>
<g><path style="opacity:1" fill="#7d3e3f" d="M 85.5,56.5 C 83.8612,56.9258 82.5279,56.9258 81.5,56.5C 82.8333,55.1667 84.1667,55.1667 85.5,56.5 Z"/></g>
<g><path style="opacity:1" fill="#44221d" d="M 152.5,47.5 C 153.473,49.9479 153.806,52.6146 153.5,55.5C 152.078,62.3991 147.745,65.7324 140.5,65.5C 138.742,65.4084 137.076,65.075 135.5,64.5C 135.5,64.1667 135.5,63.8333 135.5,63.5C 148.279,65.7205 153.946,60.3872 152.5,47.5 Z"/></g>
<g><path style="opacity:0.376" fill="#1c181f" d="M 20.5,28.5 C 19.209,28.2627 18.209,28.596 17.5,29.5C 15.9519,29.8212 15.2852,30.8212 15.5,32.5C 13.8333,33.8333 12.1667,35.1667 10.5,36.5C 8.92558,36.9371 7.75891,37.9371 7,39.5C 6.4089,43.8821 4.9089,47.8821 2.5,51.5C 5.32828,56.1583 7.32828,61.1583 8.5,66.5C 7.5041,66.5858 6.67076,66.2524 6,65.5C 5.47895,60.5438 3.97895,56.0438 1.5,52C 1.16667,49.3333 2.16667,47.3333 4.5,46C 4.16667,45.6667 3.83333,45.3333 3.5,45C 4.95626,42.7342 5.7896,40.2342 6,37.5C 7.75827,36.5305 8.25827,35.3639 7.5,34C 8.99015,32.228 10.6568,32.0613 12.5,33.5C 12.723,32.0333 13.0563,30.5333 13.5,29C 15.9406,27.6077 18.274,27.441 20.5,28.5 Z"/></g>
<g><path style="opacity:1" fill="#3c2721" d="M 23.5,38.5 C 24.1667,38.5 24.8333,38.5 25.5,38.5C 23.3384,39.1276 21.6718,40.461 20.5,42.5C 18.2729,43.4006 17.2729,45.0672 17.5,47.5C 15.1959,56.2086 18.5293,61.5419 27.5,63.5C 31.2471,62.6939 34.9138,61.6939 38.5,60.5C 38.5,64.5 38.5,68.5 38.5,72.5C 43.8333,72.5 49.1667,72.5 54.5,72.5C 55.9599,74.4628 57.6266,76.2962 59.5,78C 63.8961,80.5269 68.2295,83.0269 72.5,85.5C 65.1418,83.6526 58.8085,79.986 53.5,74.5C 48.3595,73.5119 43.0262,73.1786 37.5,73.5C 37.815,69.6286 37.4816,65.9619 36.5,62.5C 26.3406,67.0719 19.0072,64.4052 14.5,54.5C 13.8951,47.0348 16.8951,41.7015 23.5,38.5 Z"/></g>
<g><path style="opacity:1" fill="#eae3e3" d="M 127.5,39.5 C 128.167,39.5 128.5,39.8333 128.5,40.5C 123.297,45.1894 117.63,49.3561 111.5,53C 109.158,54.3919 109.158,55.2252 111.5,55.5C 112.117,55.6107 112.617,55.944 113,56.5C 113.497,58.8098 113.663,61.1432 113.5,63.5C 113.167,63.5 112.833,63.5 112.5,63.5C 110.947,65.385 108.947,66.385 106.5,66.5C 105.883,66.3893 105.383,66.056 105,65.5C 104.667,62.8333 104.333,60.1667 104,57.5C 103.617,58.056 103.117,58.3893 102.5,58.5C 96.4034,62.0833 90.07,65.0833 83.5,67.5C 83.1667,67.5 82.8333,67.5 82.5,67.5C 77.1301,67.6079 71.7968,67.2745 66.5,66.5C 66.5,65.8333 66.1667,65.5 65.5,65.5C 64.8333,64.8333 64.1667,64.1667 63.5,63.5C 63.8656,62.3054 64.699,61.6387 66,61.5C 69.3183,62.9898 72.8183,63.6565 76.5,63.5C 87.0583,63.9589 96.0583,60.6255 103.5,53.5C 104.833,52.1667 106.167,50.8333 107.5,49.5C 106.677,51.4546 106.51,53.4546 107,55.5C 108.039,54.7562 108.539,53.7562 108.5,52.5C 110.816,51.1944 113.15,49.8611 115.5,48.5C 119.221,46.6465 122.554,44.3131 125.5,41.5C 126.5,41.1667 127.167,40.5 127.5,39.5 Z"/></g>
<g><path style="opacity:1" fill="#793b32" d="M 107.5,49.5 C 108.404,50.209 108.737,51.209 108.5,52.5C 108.539,53.7562 108.039,54.7562 107,55.5C 106.51,53.4546 106.677,51.4546 107.5,49.5 Z"/></g>
<g><path style="opacity:1" fill="#584340" d="M 111.5,59.5 C 109.302,59.1201 107.635,59.7868 106.5,61.5C 105.226,60.8106 105.226,59.9772 106.5,59C 108.387,58.2204 110.054,58.3871 111.5,59.5 Z"/></g>
<g><path style="opacity:1" fill="#302820" d="M 159.5,56.5 C 159.611,57.1174 159.944,57.6174 160.5,58C 158.753,58.3519 157.086,58.8519 155.5,59.5C 155.5,58.8333 155.5,58.1667 155.5,57.5C 156.708,56.7659 158.041,56.4326 159.5,56.5 Z"/></g>
<g><path style="opacity:1" fill="#c41222" d="M 17.5,47.5 C 16.7183,53.2203 19.0517,57.0536 24.5,59C 28.0185,60.7584 31.5185,60.5917 35,58.5C 36.4595,58.8082 37.6261,59.4749 38.5,60.5C 34.9138,61.6939 31.2471,62.6939 27.5,63.5C 18.5293,61.5419 15.1959,56.2086 17.5,47.5 Z"/></g>
<g><path style="opacity:1" fill="#e82d2d" d="M 111.5,59.5 C 111.586,60.4959 111.252,61.3292 110.5,62C 108.934,62.765 107.601,62.5983 106.5,61.5C 107.635,59.7868 109.302,59.1201 111.5,59.5 Z"/></g>
<g><path style="opacity:1" fill="#e41a2b" d="M 20.5,42.5 C 21.7095,42.9321 22.7095,43.5987 23.5,44.5C 22.5,44.5 21.5,44.5 20.5,44.5C 20.4282,47.5217 21.7615,49.6884 24.5,51C 29.655,53.8426 34.9884,56.176 40.5,58C 42.9529,63.8856 47.2862,67.3856 53.5,68.5C 49.5,68.5 45.5,68.5 41.5,68.5C 41.9819,65.1694 40.9819,62.5027 38.5,60.5C 37.6261,59.4749 36.4595,58.8082 35,58.5C 31.5185,60.5917 28.0185,60.7584 24.5,59C 19.0517,57.0536 16.7183,53.2203 17.5,47.5C 17.2729,45.0672 18.2729,43.4006 20.5,42.5 Z"/></g>
<g><path style="opacity:1" fill="#37201e" d="M 102.5,58.5 C 100.929,61.2313 98.5952,63.0646 95.5,64C 91.6732,65.7897 87.6732,66.9564 83.5,67.5C 90.07,65.0833 96.4034,62.0833 102.5,58.5 Z"/></g>
<g><path style="opacity:1" fill="#b4a324" d="M 12.5,65.5 C 12.1667,65.5 11.8333,65.5 11.5,65.5C 11.3379,63.4727 11.5045,61.4727 12,59.5C 14.952,61.4494 15.1187,63.4494 12.5,65.5 Z"/></g>
<g><path style="opacity:1" fill="#d51726" d="M 151.5,46.5 C 152.167,46.5 152.5,46.8333 152.5,47.5C 153.946,60.3872 148.279,65.7205 135.5,63.5C 135.158,62.6618 134.492,62.3284 133.5,62.5C 133.189,61.5222 132.522,60.8555 131.5,60.5C 130.509,64.4454 130.176,68.4454 130.5,72.5C 125.167,72.5 119.833,72.5 114.5,72.5C 112.708,72.366 111.042,72.6993 109.5,73.5C 103.684,74.1957 97.8509,74.8624 92,75.5C 90.3189,75.3917 89.1522,74.7251 88.5,73.5C 94.8579,72.9135 101.191,72.0802 107.5,71C 109.116,70.3848 110.449,69.3848 111.5,68C 111.272,67.6012 110.938,67.4346 110.5,67.5C 111.6,66.3951 112.267,65.0618 112.5,63.5C 112.833,63.5 113.167,63.5 113.5,63.5C 113.369,64.2389 113.536,64.9056 114,65.5C 114.667,64.1667 115.333,64.1667 116,65.5C 120.353,64.6123 124.186,62.779 127.5,60C 132.785,58.974 138.118,58.3073 143.5,58C 147.44,55.8947 150.106,52.728 151.5,48.5C 151.5,47.8333 151.5,47.1667 151.5,46.5 Z"/></g>
<g><path style="opacity:1" fill="#352e22" d="M 157.5,66.5 C 156.07,66.4208 154.736,66.7542 153.5,67.5C 152.735,66.3881 151.735,65.7214 150.5,65.5C 151.167,64.5 151.833,63.5 152.5,62.5C 154.1,63.252 155.6,64.252 157,65.5C 157.98,63.9411 158.813,62.2744 159.5,60.5C 159.833,60.8333 160.167,61.1667 160.5,61.5C 160.043,63.5976 159.043,65.2642 157.5,66.5 Z"/></g>
<g><path style="opacity:1" fill="#deaf32" d="M 14.5,54.5 C 19.0072,64.4052 26.3406,67.0719 36.5,62.5C 36.5,66.5 36.5,70.5 36.5,74.5C 42.1667,74.5 47.8333,74.5 53.5,74.5C 58.8085,79.986 65.1418,83.6526 72.5,85.5C 72.5,86.1667 72.8333,86.5 73.5,86.5C 74.9187,87.4511 76.5853,87.7845 78.5,87.5C 77.0813,88.4511 75.4147,88.7845 73.5,88.5C 71.1667,87.8333 68.8333,87.1667 66.5,86.5C 65.7095,85.5987 64.7095,84.9321 63.5,84.5C 62.1667,83.8333 60.8333,83.1667 59.5,82.5C 59.0269,81.0937 58.0269,80.427 56.5,80.5C 55.5,79.1667 54.5,77.8333 53.5,76.5C 47.69,75.5104 41.69,75.1771 35.5,75.5C 35.81,72.2869 35.4767,69.2869 34.5,66.5C 33.8333,66.5 33.1667,66.5 32.5,66.5C 28.4659,66.4955 24.4659,66.1621 20.5,65.5C 19.1667,64.5 17.8333,63.5 16.5,62.5C 15.4706,60.4832 14.4706,58.4832 13.5,56.5C 14.3382,56.1583 14.6716,55.4916 14.5,54.5 Z"/></g>
<g><path style="opacity:1" fill="#d1a023" d="M 153.5,55.5 C 153.833,55.5 154.167,55.5 154.5,55.5C 154.328,56.4916 154.662,57.1583 155.5,57.5C 155.5,58.1667 155.5,58.8333 155.5,59.5C 154.167,60.1667 153.167,61.1667 152.5,62.5C 151.833,63.5 151.167,64.5 150.5,65.5C 145.356,67.2641 140.023,67.9308 134.5,67.5C 134.5,70.5 134.5,73.5 134.5,76.5C 128.132,76.1703 121.798,76.5037 115.5,77.5C 114.757,78.1818 114.091,78.8485 113.5,79.5C 111.668,80.2485 110.001,81.2485 108.5,82.5C 107.508,82.6716 106.842,82.3382 106.5,81.5C 109.429,79.0184 112.429,76.5184 115.5,74C 120.823,73.5006 126.156,73.334 131.5,73.5C 132.321,70.3586 132.821,67.0252 133,63.5C 133.671,64.2524 134.504,64.5858 135.5,64.5C 137.076,65.075 138.742,65.4084 140.5,65.5C 147.745,65.7324 152.078,62.3991 153.5,55.5 Z"/></g>
<g><path style="opacity:1" fill="#7c5e10" d="M 20.5,65.5 C 24.4659,66.1621 28.4659,66.4955 32.5,66.5C 31.036,67.1599 29.3693,67.4932 27.5,67.5C 24.7954,67.6839 22.4621,67.0173 20.5,65.5 Z"/></g>
<g><path style="opacity:1" fill="#3b2221" d="M 112.5,63.5 C 112.267,65.0618 111.6,66.3951 110.5,67.5C 108.901,67.7678 107.568,67.4345 106.5,66.5C 108.947,66.385 110.947,65.385 112.5,63.5 Z"/></g>
<g><path style="opacity:1" fill="#857a24" d="M 20.5,68.5 C 18.4458,68.3653 16.7791,69.032 15.5,70.5C 13.8333,69.1667 12.1667,67.8333 10.5,66.5C 10.8333,66.5 11.1667,66.5 11.5,66.5C 13.8437,68.068 15.8437,67.7347 17.5,65.5C 18.548,66.548 19.548,67.548 20.5,68.5 Z"/></g>
<g><path style="opacity:1" fill="#4e211d" d="M 65.5,65.5 C 66.1667,65.5 66.5,65.8333 66.5,66.5C 64.5887,67.075 62.922,68.075 61.5,69.5C 60.209,69.7373 59.209,69.404 58.5,68.5C 61.0384,67.9573 63.3718,66.9573 65.5,65.5 Z"/></g>
<g><path style="opacity:1" fill="#867b34" d="M 150.5,65.5 C 151.735,65.7214 152.735,66.3881 153.5,67.5C 154.736,66.7542 156.07,66.4208 157.5,66.5C 157.5,67.1667 157.5,67.8333 157.5,68.5C 156.022,68.238 154.689,68.5713 153.5,69.5C 154.653,70.6868 154.653,71.6868 153.5,72.5C 152.766,71.2921 152.433,69.9587 152.5,68.5C 151.167,68.5 149.833,68.5 148.5,68.5C 149.551,67.7777 150.218,66.7777 150.5,65.5 Z"/></g>
<g><path style="opacity:1" fill="#e71c2c" d="M 106.5,66.5 C 107.568,67.4345 108.901,67.7678 110.5,67.5C 110.938,67.4346 111.272,67.6012 111.5,68C 110.449,69.3848 109.116,70.3848 107.5,71C 101.191,72.0802 94.8579,72.9135 88.5,73.5C 78.7029,75.2149 69.0362,74.7149 59.5,72C 59.1667,71.6667 58.8333,71.3333 58.5,71C 59.7375,70.7679 60.7375,70.2679 61.5,69.5C 62.922,68.075 64.5887,67.075 66.5,66.5C 66.9175,67.2216 67.5842,67.7216 68.5,68C 73.3522,68.8151 78.0189,68.6484 82.5,67.5C 82.8333,67.5 83.1667,67.5 83.5,67.5C 87.6732,66.9564 91.6732,65.7897 95.5,64C 98.5952,63.0646 100.929,61.2313 102.5,58.5C 103.117,58.3893 103.617,58.056 104,57.5C 104.333,60.1667 104.667,62.8333 105,65.5C 105.383,66.056 105.883,66.3893 106.5,66.5 Z"/></g>
<g><path style="opacity:1" fill="#600e0f" d="M 66.5,66.5 C 71.7968,67.2745 77.1301,67.6079 82.5,67.5C 78.0189,68.6484 73.3522,68.8151 68.5,68C 67.5842,67.7216 66.9175,67.2216 66.5,66.5 Z"/></g>
<g><path style="opacity:1" fill="#50471f" d="M 133.5,62.5 C 134.492,62.3284 135.158,62.6618 135.5,63.5C 135.5,63.8333 135.5,64.1667 135.5,64.5C 134.504,64.5858 133.671,64.2524 133,63.5C 132.821,67.0252 132.321,70.3586 131.5,73.5C 130.92,69.351 131.586,65.6843 133.5,62.5 Z"/></g>
<g><path style="opacity:1" fill="#d2b92d" d="M 20.5,68.5 C 19.3437,70.3873 17.677,71.7206 15.5,72.5C 14.1667,71.8333 14.1667,71.1667 15.5,70.5C 16.7791,69.032 18.4458,68.3653 20.5,68.5 Z"/></g>
<g><path style="opacity:1" fill="#8e742c" d="M 20.5,68.5 C 22.4113,69.075 24.078,70.075 25.5,71.5C 25.3287,74.7973 25.9954,75.1306 27.5,72.5C 28.0886,74.4812 27.7553,76.4812 26.5,78.5C 25.5207,77.2347 24.5207,75.9014 23.5,74.5C 21.8333,73.1667 20.1667,73.1667 18.5,74.5C 17.2613,74.0576 16.2613,73.3909 15.5,72.5C 17.677,71.7206 19.3437,70.3873 20.5,68.5 Z"/></g>
<g><path style="opacity:1" fill="#311e1b" d="M 133.5,62.5 C 131.586,65.6843 130.92,69.351 131.5,73.5C 126.156,73.334 120.823,73.5006 115.5,74C 112.429,76.5184 109.429,79.0184 106.5,81.5C 97.8891,86.6512 88.5557,88.6512 78.5,87.5C 76.5853,87.7845 74.9187,87.4511 73.5,86.5C 89.6405,88.5656 103.307,83.8989 114.5,72.5C 119.833,72.5 125.167,72.5 130.5,72.5C 130.176,68.4454 130.509,64.4454 131.5,60.5C 132.522,60.8555 133.189,61.5222 133.5,62.5 Z"/></g>
<g><path style="opacity:1" fill="#be9b22" d="M 148.5,68.5 C 149.833,68.5 151.167,68.5 152.5,68.5C 152.433,69.9587 152.766,71.2921 153.5,72.5C 152.265,72.7214 151.265,73.3881 150.5,74.5C 149.264,73.7542 147.93,73.4208 146.5,73.5C 146.953,72.5416 147.619,71.7083 148.5,71C 147.231,71.1085 146.231,70.9418 145.5,70.5C 145.973,69.0937 146.973,68.427 148.5,68.5 Z"/></g>
<g><path style="opacity:1" fill="#b5963c" d="M 36.5,62.5 C 37.4816,65.9619 37.815,69.6286 37.5,73.5C 43.0262,73.1786 48.3595,73.5119 53.5,74.5C 47.8333,74.5 42.1667,74.5 36.5,74.5C 36.5,70.5 36.5,66.5 36.5,62.5 Z"/></g>
<g><path style="opacity:1" fill="#d11625" d="M 38.5,60.5 C 40.9819,62.5027 41.9819,65.1694 41.5,68.5C 45.5,68.5 49.5,68.5 53.5,68.5C 54.7777,68.2178 55.7777,67.5511 56.5,66.5C 57.1667,67.1667 57.8333,67.8333 58.5,68.5C 59.209,69.404 60.209,69.7373 61.5,69.5C 60.7375,70.2679 59.7375,70.7679 58.5,71C 58.8333,71.3333 59.1667,71.6667 59.5,72C 69.0362,74.7149 78.7029,75.2149 88.5,73.5C 89.1522,74.7251 90.3189,75.3917 92,75.5C 97.8509,74.8624 103.684,74.1957 109.5,73.5C 98.7848,82.5485 86.4514,85.0485 72.5,81C 66.0226,78.9254 60.0226,76.092 54.5,72.5C 49.1667,72.5 43.8333,72.5 38.5,72.5C 38.5,68.5 38.5,64.5 38.5,60.5 Z"/></g>
<g><path style="opacity:1" fill="#54451f" d="M 145.5,70.5 C 146.231,70.9418 147.231,71.1085 148.5,71C 147.619,71.7083 146.953,72.5416 146.5,73.5C 145.5,74.5 144.5,75.5 143.5,76.5C 143.5,74.8333 143.5,73.1667 143.5,71.5C 144.167,71.1667 144.833,70.8333 145.5,70.5 Z"/></g>
<g><path style="opacity:0.027" fill="#201c20" d="M 160.5,66.5 C 160.5,67.8333 160.5,69.1667 160.5,70.5C 159.07,70.5792 157.736,70.2458 156.5,69.5C 155.904,70.7161 155.737,72.0494 156,73.5C 154.324,74.0611 152.991,75.0611 152,76.5C 150.274,75.4238 148.441,75.2571 146.5,76C 145.378,78.1238 143.878,79.9571 142,81.5C 141.506,83.1341 141.34,84.8008 141.5,86.5C 137.286,86.2497 133.453,87.2497 130,89.5C 125.121,86.6035 119.954,85.9368 114.5,87.5C 114.898,91.7589 112.898,93.5922 108.5,93C 104.507,99.0019 99.3402,100.502 93,97.5C 87.3333,101.5 81.6667,101.5 76,97.5C 70.0123,100.562 65.179,99.2286 61.5,93.5C 59.5767,92.6922 57.5767,92.1922 55.5,92C 54.6198,90.6439 54.2865,89.1439 54.5,87.5C 55.8333,87.1667 55.8333,86.8333 54.5,86.5C 56.4191,83.9165 58.0858,84.2498 59.5,87.5C 59.0623,88.5063 58.3957,88.5063 57.5,87.5C 56.479,88.0016 56.3123,88.6683 57,89.5C 58.3333,90.8333 59.6667,90.8333 61,89.5C 61.9959,91.6605 63.4959,93.3272 65.5,94.5C 69.76,97.1518 74.0934,97.1518 78.5,94.5C 79.5063,94.9377 79.5063,95.6043 78.5,96.5C 82.6154,99.1144 86.6154,99.1144 90.5,96.5C 89.153,92.8904 89.8196,92.5571 92.5,95.5C 93.7933,96.1582 95.2933,96.4915 97,96.5C 99.5437,96.664 101.71,95.9973 103.5,94.5C 105.504,93.3272 107.004,91.6605 108,89.5C 109.356,90.3802 110.856,90.7135 112.5,90.5C 112.719,89.325 112.386,88.325 111.5,87.5C 108.888,87.9847 108.888,87.1513 111.5,85C 114.972,85.4727 118.305,84.9727 121.5,83.5C 121.833,83.5 122.167,83.5 122.5,83.5C 123.058,84.7899 124.058,85.6232 125.5,86C 130.451,86.9331 135.118,86.2664 139.5,84C 140.337,82.9887 140.67,81.8221 140.5,80.5C 142.262,79.7377 143.262,78.4044 143.5,76.5C 144.5,75.5 145.5,74.5 146.5,73.5C 147.93,73.4208 149.264,73.7542 150.5,74.5C 151.265,73.3881 152.265,72.7214 153.5,72.5C 154.653,71.6868 154.653,70.6868 153.5,69.5C 154.689,68.5713 156.022,68.238 157.5,68.5C 158.5,67.8333 159.5,67.1667 160.5,66.5 Z"/></g>
<g><path style="opacity:0.031" fill="#1d1a1f" d="M 8.5,66.5 C 9.16667,66.5 9.83333,66.5 10.5,66.5C 12.1667,67.8333 13.8333,69.1667 15.5,70.5C 14.1667,71.1667 14.1667,71.8333 15.5,72.5C 16.2613,73.3909 17.2613,74.0576 18.5,74.5C 20.1667,73.1667 21.8333,73.1667 23.5,74.5C 24.5207,75.9014 25.5207,77.2347 26.5,78.5C 26.8333,79.5 27.5,80.1667 28.5,80.5C 28.5,81.8333 28.5,83.1667 28.5,84.5C 31.4509,84.2872 34.1175,84.9539 36.5,86.5C 40.8131,86.6223 44.9798,85.9556 49,84.5C 51.1782,84.3948 53.0115,85.0615 54.5,86.5C 54.5,86.8333 54.5,87.1667 54.5,87.5C 49.0458,85.9368 43.8792,86.6035 39,89.5C 35.5473,87.2497 31.714,86.2497 27.5,86.5C 27.6602,84.8008 27.4935,83.1341 27,81.5C 25.1217,79.9571 23.6217,78.1238 22.5,76C 20.5594,75.2571 18.7261,75.4238 17,76.5C 16.0094,75.0611 14.676,74.0611 13,73.5C 13.2626,72.0494 13.0959,70.7161 12.5,69.5C 11.2638,70.2458 9.93047,70.5792 8.5,70.5C 8.5,69.1667 8.5,67.8333 8.5,66.5 Z"/></g>
<g><path style="opacity:1" fill="#8d6b0a" d="M 34.5,66.5 C 35.4767,69.2869 35.81,72.2869 35.5,75.5C 41.69,75.1771 47.69,75.5104 53.5,76.5C 47.1667,76.5 40.8333,76.5 34.5,76.5C 34.5,73.1667 34.5,69.8333 34.5,66.5 Z"/></g>
<g><path style="opacity:1" fill="#ac0e19" d="M 54.5,72.5 C 60.0226,76.092 66.0226,78.9254 72.5,81C 86.4514,85.0485 98.7848,82.5485 109.5,73.5C 111.042,72.6993 112.708,72.366 114.5,72.5C 103.307,83.8989 89.6405,88.5656 73.5,86.5C 72.8333,86.5 72.5,86.1667 72.5,85.5C 68.2295,83.0269 63.8961,80.5269 59.5,78C 57.6266,76.2962 55.9599,74.4628 54.5,72.5 Z"/></g>
<g><path style="opacity:1" fill="#2b2423" d="M 150.5,65.5 C 150.218,66.7777 149.551,67.7777 148.5,68.5C 146.973,68.427 145.973,69.0937 145.5,70.5C 144.833,70.8333 144.167,71.1667 143.5,71.5C 143.631,70.6236 143.298,69.9569 142.5,69.5C 140.657,69.7552 138.657,69.9219 136.5,70C 136.043,70.414 135.709,70.914 135.5,71.5C 137.029,72.7629 138.695,73.7629 140.5,74.5C 140.598,77.2476 139.598,77.9143 137.5,76.5C 135.712,77.3604 134.045,78.3604 132.5,79.5C 131.957,79.56 131.624,79.8933 131.5,80.5C 132.5,81.1667 133.5,81.8333 134.5,82.5C 133.833,82.8333 133.167,83.1667 132.5,83.5C 130.577,82.9076 128.911,81.9076 127.5,80.5C 125.267,80.2815 122.767,79.6148 120,78.5C 119.5,78.6667 119,78.8333 118.5,79C 119.381,79.7083 120.047,80.5416 120.5,81.5C 120.565,81.9382 120.399,82.2716 120,82.5C 118.211,80.771 116.044,80.1043 113.5,80.5C 113.5,80.1667 113.5,79.8333 113.5,79.5C 114.091,78.8485 114.757,78.1818 115.5,77.5C 121.798,76.5037 128.132,76.1703 134.5,76.5C 134.5,73.5 134.5,70.5 134.5,67.5C 140.023,67.9308 145.356,67.2641 150.5,65.5 Z"/></g>
<g><path style="opacity:1" fill="#221e22" d="M 16.5,62.5 C 17.8333,63.5 19.1667,64.5 20.5,65.5C 22.4621,67.0173 24.7954,67.6839 27.5,67.5C 29.3693,67.4932 31.036,67.1599 32.5,66.5C 33.1667,66.5 33.8333,66.5 34.5,66.5C 34.5,69.8333 34.5,73.1667 34.5,76.5C 40.8333,76.5 47.1667,76.5 53.5,76.5C 54.5,77.8333 55.5,79.1667 56.5,80.5C 54.8333,80.5 53.1667,80.5 51.5,80.5C 50.8333,80.5 50.5,80.1667 50.5,79.5C 47.5693,79.4538 44.5693,79.4538 41.5,79.5C 40.5987,80.2905 39.9321,81.2905 39.5,82.5C 37.2736,84.18 35.6069,83.8466 34.5,81.5C 35.0906,80.8485 35.7573,80.1818 36.5,79.5C 35.0521,78.6461 33.7187,77.6461 32.5,76.5C 31.1875,80.3884 30.1875,80.2217 29.5,76C 30.8056,74.0366 31.9722,72.2033 33,70.5C 30.7683,69.8126 28.6016,69.4793 26.5,69.5C 25.7025,69.9569 25.3691,70.6236 25.5,71.5C 24.078,70.075 22.4113,69.075 20.5,68.5C 19.548,67.548 18.548,66.548 17.5,65.5C 15.8437,67.7347 13.8437,68.068 11.5,66.5C 11.5,66.1667 11.5,65.8333 11.5,65.5C 11.8333,65.5 12.1667,65.5 12.5,65.5C 13.5,65.5 14.5,65.5 15.5,65.5C 15.2627,64.209 15.596,63.209 16.5,62.5 Z"/></g>
<g><path style="opacity:1" fill="#7b6623" d="M 137.5,76.5 C 139.598,77.9143 140.598,77.2476 140.5,74.5C 140.369,73.6236 140.702,72.9569 141.5,72.5C 143.515,76.791 142.181,79.1243 137.5,79.5C 137.5,78.5 137.5,77.5 137.5,76.5 Z"/></g>
<g><path style="opacity:1" fill="#b69c24" d="M 34.5,81.5 C 33.0335,84.2583 32.3668,83.925 32.5,80.5C 31.1667,80.5 29.8333,80.5 28.5,80.5C 27.5,80.1667 26.8333,79.5 26.5,78.5C 27.7553,76.4812 28.0886,74.4812 27.5,72.5C 25.9954,75.1306 25.3287,74.7973 25.5,71.5C 25.3691,70.6236 25.7025,69.9569 26.5,69.5C 28.6016,69.4793 30.7683,69.8126 33,70.5C 31.9722,72.2033 30.8056,74.0366 29.5,76C 30.1875,80.2217 31.1875,80.3884 32.5,76.5C 33.7187,77.6461 35.0521,78.6461 36.5,79.5C 35.7573,80.1818 35.0906,80.8485 34.5,81.5 Z"/></g>
<g><path style="opacity:0.965" fill="#bb9c25" d="M 143.5,71.5 C 143.5,73.1667 143.5,74.8333 143.5,76.5C 143.262,78.4044 142.262,79.7377 140.5,80.5C 139.167,80.5 137.833,80.5 136.5,80.5C 136.167,84.5 135.833,84.5 135.5,80.5C 134.209,80.7373 133.209,80.404 132.5,79.5C 134.045,78.3604 135.712,77.3604 137.5,76.5C 137.5,77.5 137.5,78.5 137.5,79.5C 142.181,79.1243 143.515,76.791 141.5,72.5C 140.702,72.9569 140.369,73.6236 140.5,74.5C 138.695,73.7629 137.029,72.7629 135.5,71.5C 135.709,70.914 136.043,70.414 136.5,70C 138.657,69.9219 140.657,69.7552 142.5,69.5C 143.298,69.9569 143.631,70.6236 143.5,71.5 Z"/></g>
<g><path style="opacity:1" fill="#eeda40" d="M 50.5,79.5 C 49.0256,80.4363 48.0256,81.7697 47.5,83.5C 45.9139,82.5868 44.4139,82.5868 43,83.5C 42.2086,82.255 41.7086,80.9217 41.5,79.5C 44.5693,79.4538 47.5693,79.4538 50.5,79.5 Z"/></g>
<g><path style="opacity:1" fill="#72621f" d="M 50.5,79.5 C 50.5,80.1667 50.8333,80.5 51.5,80.5C 51.9175,81.2216 52.5842,81.7216 53.5,82C 51.7505,83.3186 49.7505,83.8186 47.5,83.5C 48.0256,81.7697 49.0256,80.4363 50.5,79.5 Z"/></g>
<g><path style="opacity:1" fill="#60511f" d="M 113.5,79.5 C 113.5,79.8333 113.5,80.1667 113.5,80.5C 111.215,82.1182 109.215,84.1182 107.5,86.5C 106.135,87.8069 104.802,87.8069 103.5,86.5C 103.167,86.5 102.833,86.5 102.5,86.5C 104.5,85.1667 106.5,83.8333 108.5,82.5C 110.001,81.2485 111.668,80.2485 113.5,79.5 Z"/></g>
<g><path style="opacity:1" fill="#edd843" d="M 127.5,80.5 C 127.013,81.4734 126.513,82.4734 126,83.5C 124.855,82.3157 123.688,82.3157 122.5,83.5C 122.167,83.5 121.833,83.5 121.5,83.5C 121.672,82.5084 121.338,81.8417 120.5,81.5C 120.047,80.5416 119.381,79.7083 118.5,79C 119,78.8333 119.5,78.6667 120,78.5C 122.767,79.6148 125.267,80.2815 127.5,80.5 Z"/></g>
<g><path style="opacity:1" fill="#7b5e26" d="M 28.5,80.5 C 29.8333,80.5 31.1667,80.5 32.5,80.5C 32.3668,83.925 33.0335,84.2583 34.5,81.5C 35.6069,83.8466 37.2736,84.18 39.5,82.5C 40.8799,82.0649 41.8799,82.8982 42.5,85C 40.2922,85.1909 38.2922,85.6909 36.5,86.5C 34.1175,84.9539 31.4509,84.2872 28.5,84.5C 28.5,83.1667 28.5,81.8333 28.5,80.5 Z"/></g>
<g><path style="opacity:1" fill="#866524" d="M 132.5,79.5 C 133.209,80.404 134.209,80.7373 135.5,80.5C 135.833,84.5 136.167,84.5 136.5,80.5C 137.833,80.5 139.167,80.5 140.5,80.5C 140.67,81.8221 140.337,82.9887 139.5,84C 135.118,86.2664 130.451,86.9331 125.5,86C 124.058,85.6232 123.058,84.7899 122.5,83.5C 123.688,82.3157 124.855,82.3157 126,83.5C 126.513,82.4734 127.013,81.4734 127.5,80.5C 128.911,81.9076 130.577,82.9076 132.5,83.5C 133.167,83.1667 133.833,82.8333 134.5,82.5C 133.5,81.8333 132.5,81.1667 131.5,80.5C 131.624,79.8933 131.957,79.56 132.5,79.5 Z"/></g>
<g><path style="opacity:1" fill="#3e3724" d="M 59.5,82.5 C 60.8333,83.1667 62.1667,83.8333 63.5,84.5C 61.2457,87.0038 59.9124,86.3371 59.5,82.5 Z"/></g>
<g><path style="opacity:1" fill="#a78928" d="M 41.5,79.5 C 41.7086,80.9217 42.2086,82.255 43,83.5C 44.4139,82.5868 45.9139,82.5868 47.5,83.5C 49.7505,83.8186 51.7505,83.3186 53.5,82C 52.5842,81.7216 51.9175,81.2216 51.5,80.5C 53.1667,80.5 54.8333,80.5 56.5,80.5C 58.0269,80.427 59.0269,81.0937 59.5,82.5C 59.9124,86.3371 61.2457,87.0038 63.5,84.5C 64.7095,84.9321 65.7095,85.5987 66.5,86.5C 62.3615,89.3897 62.6948,91.3897 67.5,92.5C 67.5,93.8333 66.8333,94.5 65.5,94.5C 63.4959,93.3272 61.9959,91.6605 61,89.5C 59.6667,90.8333 58.3333,90.8333 57,89.5C 56.3123,88.6683 56.479,88.0016 57.5,87.5C 58.3957,88.5063 59.0623,88.5063 59.5,87.5C 58.0858,84.2498 56.4191,83.9165 54.5,86.5C 53.0115,85.0615 51.1782,84.3948 49,84.5C 44.9798,85.9556 40.8131,86.6223 36.5,86.5C 38.2922,85.6909 40.2922,85.1909 42.5,85C 41.8799,82.8982 40.8799,82.0649 39.5,82.5C 39.9321,81.2905 40.5987,80.2905 41.5,79.5 Z"/></g>
<g><path style="opacity:1" fill="#a48426" d="M 113.5,80.5 C 116.044,80.1043 118.211,80.771 120,82.5C 120.399,82.2716 120.565,81.9382 120.5,81.5C 121.338,81.8417 121.672,82.5084 121.5,83.5C 118.305,84.9727 114.972,85.4727 111.5,85C 108.888,87.1513 108.888,87.9847 111.5,87.5C 112.386,88.325 112.719,89.325 112.5,90.5C 110.856,90.7135 109.356,90.3802 108,89.5C 107.004,91.6605 105.504,93.3272 103.5,94.5C 101.302,94.5912 100.969,93.9245 102.5,92.5C 103.398,91.8423 104.398,91.1757 105.5,90.5C 104.37,89.3777 103.703,88.0443 103.5,86.5C 104.802,87.8069 106.135,87.8069 107.5,86.5C 109.215,84.1182 111.215,82.1182 113.5,80.5 Z"/></g>
<g><path style="opacity:1" fill="#322920" d="M 66.5,86.5 C 68.8333,87.1667 71.1667,87.8333 73.5,88.5C 74.5676,89.4345 75.901,89.7678 77.5,89.5C 77.1436,91.1898 76.1436,92.1898 74.5,92.5C 73.2876,91.7701 72.2876,90.7701 71.5,89.5C 70.5,90.8333 69.5,90.8333 68.5,89.5C 67.6143,90.325 67.281,91.325 67.5,92.5C 62.6948,91.3897 62.3615,89.3897 66.5,86.5 Z"/></g>
<g><path style="opacity:1" fill="#3a2e23" d="M 102.5,86.5 C 102.833,86.5 103.167,86.5 103.5,86.5C 103.703,88.0443 104.37,89.3777 105.5,90.5C 104.398,91.1757 103.398,91.8423 102.5,92.5C 102.167,92.5 101.833,92.5 101.5,92.5C 101.719,91.325 101.386,90.325 100.5,89.5C 99.5,90.8333 98.5,90.8333 97.5,89.5C 95.6444,93.0779 93.6444,93.2445 91.5,90C 95.0615,88.3915 98.7282,87.2248 102.5,86.5 Z"/></g>
<g><path style="opacity:1" fill="#caa032" d="M 74.5,92.5 C 72.2743,93.7563 69.941,93.7563 67.5,92.5C 67.281,91.325 67.6143,90.325 68.5,89.5C 69.5,90.8333 70.5,90.8333 71.5,89.5C 72.2876,90.7701 73.2876,91.7701 74.5,92.5 Z"/></g>
<g><path style="opacity:1" fill="#1f1b21" d="M 87.5,92.5 C 87.5,93.1667 87.5,93.8333 87.5,94.5C 85.2466,98.5529 83.2466,98.3862 81.5,94C 81.8333,93.5 82.1667,93 82.5,92.5C 84.1284,93.5353 85.795,93.5353 87.5,92.5 Z"/></g>
<g><path style="opacity:1" fill="#b38326" d="M 106.5,81.5 C 106.842,82.3382 107.508,82.6716 108.5,82.5C 106.5,83.8333 104.5,85.1667 102.5,86.5C 98.7282,87.2248 95.0615,88.3915 91.5,90C 93.6444,93.2445 95.6444,93.0779 97.5,89.5C 98.5,90.8333 99.5,90.8333 100.5,89.5C 101.386,90.325 101.719,91.325 101.5,92.5C 98.0708,92.7694 95.0708,93.7694 92.5,95.5C 89.8196,92.5571 89.153,92.8904 90.5,96.5C 89.2223,96.2178 88.2223,95.5511 87.5,94.5C 87.5,93.8333 87.5,93.1667 87.5,92.5C 88.4293,91.6851 89.4293,90.8518 90.5,90C 86.1794,89.501 81.8461,89.3343 77.5,89.5C 75.901,89.7678 74.5676,89.4345 73.5,88.5C 75.4147,88.7845 77.0813,88.4511 78.5,87.5C 88.5557,88.6512 97.8891,86.6512 106.5,81.5 Z"/></g>
<g><path style="opacity:1" fill="#6c481f" d="M 101.5,92.5 C 101.833,92.5 102.167,92.5 102.5,92.5C 100.969,93.9245 101.302,94.5912 103.5,94.5C 101.71,95.9973 99.5437,96.664 97,96.5C 95.2933,96.4915 93.7933,96.1582 92.5,95.5C 95.0708,93.7694 98.0708,92.7694 101.5,92.5 Z"/></g>
<g><path style="opacity:1" fill="#815b20" d="M 77.5,89.5 C 81.8461,89.3343 86.1794,89.501 90.5,90C 89.4293,90.8518 88.4293,91.6851 87.5,92.5C 85.795,93.5353 84.1284,93.5353 82.5,92.5C 82.1667,93 81.8333,93.5 81.5,94C 83.2466,98.3862 85.2466,98.5529 87.5,94.5C 88.2223,95.5511 89.2223,96.2178 90.5,96.5C 86.6154,99.1144 82.6154,99.1144 78.5,96.5C 79.5063,95.6043 79.5063,94.9377 78.5,94.5C 74.0934,97.1518 69.76,97.1518 65.5,94.5C 66.8333,94.5 67.5,93.8333 67.5,92.5C 69.941,93.7563 72.2743,93.7563 74.5,92.5C 76.1436,92.1898 77.1436,91.1898 77.5,89.5 Z"/></g>
</svg>
